HIERARCHY
ROOT Hips
{
	OFFSET 0.000000 0.000000 0.000000
	CHANNELS 6 Xposition Yposition Zposition Zrotation Yrotation Xrotation 
	JOINT LowerBack
	{
		OFFSET 0.000000 0.000000 0.000000
		CHANNELS 3 Zrotation Yrotation Xrotation
		JOINT Spine
		{
			OFFSET 0.028270 2.035590 -0.193380
			CHANNELS 3 Zrotation Yrotation Xrotation
			JOINT Spine1
			{
				OFFSET 0.056720 2.048850 -0.042750
				CHANNELS 3 Zrotation Yrotation Xrotation
				JOINT Neck
				{
					OFFSET 0.000000 0.000000 0.000000
					CHANNELS 3 Zrotation Yrotation Xrotation
					JOINT Neck1
					{
						OFFSET -0.054170 1.746240 0.172020
						CHANNELS 3 Zrotation Yrotation Xrotation
						JOINT Head
						{
							OFFSET 0.104070 1.761360 -0.123970
							CHANNELS 3 Zrotation Yrotation Xrotation
							End Site
							{
								OFFSET 0.000000 0.000000 0.000000
							}
						}
					}
				}
				JOINT LeftShoulder
				{
					OFFSET 0.000000 0.000000 0.000000
					CHANNELS 3 Zrotation Yrotation Xrotation
					JOINT LeftArm
					{
						OFFSET 3.362410 1.200890 -0.311210
						CHANNELS 3 Zrotation Yrotation Xrotation
						JOINT LeftForeArm
						{
							OFFSET 4.983000 -0.000000 -0.000000
							CHANNELS 3 Zrotation Yrotation Xrotation
							JOINT LeftHand
							{
								OFFSET 3.483560 -0.000000 -0.000000
								CHANNELS 3 Zrotation Yrotation Xrotation
								JOINT LeftFingerBase
								{
									OFFSET 0.000000 0.000000 0.000000
									CHANNELS 3 Zrotation Yrotation Xrotation
									JOINT LeftHandIndex1
									{
										OFFSET 0.715260 -0.000000 -0.000000
										CHANNELS 3 Zrotation Yrotation Xrotation
										End Site
										{
											OFFSET 0.000000 0.000000 0.000000
										}
									}
								}
								JOINT LThumb
								{
									OFFSET 0.000000 0.000000 0.000000
									CHANNELS 3 Zrotation Yrotation Xrotation
									End Site
									{
										OFFSET 0.000000 0.000000 0.000000
									}
								}
							}
						}
					}
				}
				JOINT RightShoulder
				{
					OFFSET 0.000000 0.000000 0.000000
					CHANNELS 3 Zrotation Yrotation Xrotation
					JOINT RightArm
					{
						OFFSET -3.136600 1.374050 -0.404650
						CHANNELS 3 Zrotation Yrotation Xrotation
						JOINT RightForeArm
						{
							OFFSET -5.241900 -0.000000 -0.000000
							CHANNELS 3 Zrotation Yrotation Xrotation
							JOINT RightHand
							{
								OFFSET -3.444170 -0.000000 -0.000000
								CHANNELS 3 Zrotation Yrotation Xrotation
								JOINT RightFingerBase
								{
									OFFSET 0.000000 0.000000 0.000000
									CHANNELS 3 Zrotation Yrotation Xrotation
									JOINT RightHandIndex1
									{
										OFFSET -0.622530 -0.000000 -0.000000
										CHANNELS 3 Zrotation Yrotation Xrotation
										End Site
										{
											OFFSET 0.000000 0.000000 0.000000
										}
									}
								}
								JOINT RThumb
								{
									OFFSET 0.000000 0.000000 0.000000
									CHANNELS 3 Zrotation Yrotation Xrotation
									End Site
									{
										OFFSET 0.000000 0.000000 0.000000
									}
								}
							}
						}
					}
				}
			}
		}
	}
}
}
MOTION
Frames: 17
Frame Time: 0.008333
6.015398 16.267549 1.620333 177.943212 -85.247102 -156.307032 2.143489 -1.049971 -1.639680 -0.354623 -1.280617 -3.586992 -6.971233 -1.237349 -1.890492 11.292887 -9.121219 -8.171084 -3.604473 -0.264425 -0.223915 0.000000 0.000000 0.000000 2.749026 9.506088 0.491211 -75.935620 13.275450 26.330259 179.849291 -82.810992 179.933364 10.367551 -7.930237 -0.776349 -0.147921 0.527632 -0.000000 0.000000 0.000000 0.000000 0.000000 0.000000 0.000000 13.169633 -2.651616 -0.223082 74.845087 9.351657 33.939543 179.547470 80.581912 179.962116 -6.770978 17.384116 -1.110820 0.164802 -0.839255 -0.000000 0.000000 0.000000 0.000000 0.000000 0.000000 0.000000 
5.764861 16.349062 1.604033 175.023786 -85.257250 -153.338814 1.770062 -0.935203 -1.881601 -0.439073 -1.149670 -3.626730 -6.978263 -1.100175 -1.870719 11.175592 -9.000265 -8.129275 -3.510316 -0.258530 -0.205926 0.000000 0.000000 0.000000 3.033902 9.991880 0.446767 -75.136098 14.740224 26.807244 179.866040 -81.083393 179.936754 9.616357 -8.309833 -0.752762 -0.130965 0.539352 0.000000 0.000000 0.000000 0.000000 0.000000 0.000000 0.000000 12.354007 -2.319798 -0.315341 75.958943 10.403146 34.746956 179.468467 79.344156 179.964408 -6.310665 17.616113 -1.051218 0.159911 -0.873286 0.000000 0.000000 0.000000 0.000000 0.000000 0.000000 0.000000 
5.510188 16.440861 1.588936 172.338198 -85.306292 -150.582266 1.435730 -0.816399 -2.149887 -0.517659 -1.018317 -3.673476 -7.001117 -0.962806 -1.857041 11.062780 -8.912286 -8.098267 -3.416114 -0.252627 -0.190193 0.000000 0.000000 0.000000 3.340283 10.463602 0.395064 -74.303854 16.124844 27.363485 179.879797 -79.396577 179.939843 8.901094 -8.612137 -0.720596 -0.114017 0.550056 -0.000000 0.000000 0.000000 0.000000 0.000000 0.000000 0.000000 11.536946 -2.023743 -0.417250 77.057813 11.293234 35.412813 179.388091 78.112007 179.966679 -5.881084 17.777376 -0.990617 0.154918 -0.905156 0.000000 0.000000 0.000000 0.000000 0.000000 0.000000 0.000000 
5.251923 16.542217 1.575330 169.870663 -85.394681 -148.037949 1.142475 -0.692225 -2.425931 -0.590987 -0.884762 -3.724377 -7.040238 -0.823527 -1.851231 10.959793 -8.852462 -8.072982 -3.326310 -0.247055 -0.175659 0.000000 0.000000 0.000000 3.656192 10.902891 0.336870 -73.464911 17.416221 27.945853 179.888714 -77.836515 179.942431 8.288900 -8.823784 -0.686342 -0.098620 0.558253 -0.000000 0.000000 0.000000 0.000000 0.000000 0.000000 0.000000 10.757453 -1.765716 -0.524477 78.103263 12.024724 35.938891 179.310676 76.931179 179.968689 -5.507888 17.863810 -0.934017 0.150325 -0.933784 0.000000 0.000000 0.000000 0.000000 0.000000 0.000000 0.000000 
4.990463 16.652170 1.563360 167.552473 -85.520789 -145.653798 0.888189 -0.563601 -2.691004 -0.660288 -0.749190 -3.778631 -7.095729 -0.682810 -1.864194 10.869135 -8.815303 -8.040189 -3.245349 -0.242295 -0.158802 0.000000 0.000000 0.000000 3.960944 11.255696 0.271000 -72.642591 18.661434 28.474983 179.890348 -76.434997 179.944368 7.821940 -8.944232 -0.655498 -0.085688 0.562900 -0.000000 0.000000 0.000000 0.000000 0.000000 0.000000 0.000000 10.047926 -1.545969 -0.627476 79.066415 12.600900 36.336439 179.239493 75.839120 179.970319 -5.203474 17.872285 -0.884319 0.146511 -0.958310 0.000000 0.000000 0.000000 0.000000 0.000000 0.000000 0.000000 
4.726264 16.769330 1.553081 165.299961 -85.682607 -143.360645 0.666943 -0.433236 -2.931134 -0.726266 -0.613347 -3.830819 -7.162783 -0.542111 -1.884009 10.794320 -8.805007 -8.005163 -3.173638 -0.238252 -0.141459 0.000000 0.000000 0.000000 4.259082 11.552110 0.198340 -71.863691 19.822813 28.943444 179.885230 -75.245509 179.945616 7.535115 -8.980448 -0.633349 -0.076803 0.563549 -0.000000 0.000000 0.000000 0.000000 0.000000 0.000000 0.000000 9.426029 -1.373069 -0.726184 79.932862 13.048837 36.629384 179.177041 74.858737 179.971515 -4.967402 17.805941 -0.842428 0.143600 -0.978196 0.000000 0.000000 0.000000 0.000000 0.000000 0.000000 0.000000 
4.459928 16.892127 1.544165 162.839989 -85.877170 -140.904526 0.461600 -0.308860 -3.127455 -0.791678 -0.482794 -3.876976 -7.237569 -0.406835 -1.909473 10.737359 -8.820681 -7.964502 -3.112245 -0.235010 -0.123005 0.000000 0.000000 0.000000 4.551472 11.784711 0.120147 -71.146967 20.915980 29.319863 179.873741 -74.267807 179.946209 7.431228 -8.950545 -0.622086 -0.072356 0.560387 -0.000000 0.000000 0.000000 0.000000 0.000000 0.000000 0.000000 8.905030 -1.249818 -0.816544 80.699544 13.390856 36.841646 179.124055 74.006224 179.972375 -4.784865 17.665401 -0.806151 0.141416 -0.993107 0.000000 0.000000 0.000000 0.000000 0.000000 0.000000 0.000000 
4.192564 17.018942 1.535601 159.662912 -86.094747 -137.808697 0.241033 -0.202811 -3.249932 -0.862253 -0.366070 -3.912933 -7.319242 -0.285292 -1.948200 10.702820 -8.860552 -7.908886 -3.063275 -0.232817 -0.101273 0.000000 0.000000 0.000000 4.835825 11.918062 0.037771 -70.499226 21.995855 29.558130 179.856153 -73.459477 179.946243 7.481521 -8.884022 -0.621413 -0.071502 0.554200 0.000000 0.000000 0.000000 0.000000 0.000000 0.000000 0.000000 8.500844 -1.176368 -0.890834 81.374662 13.653990 36.998946 179.078519 73.287676 179.973112 -4.631890 17.447947 -0.771692 0.139666 -1.003046 0.000000 0.000000 0.000000 0.000000 0.000000 0.000000 0.000000 
3.924675 17.147747 1.526195 155.252485 -86.312795 -133.585348 -0.028285 -0.125802 -3.271818 -0.943670 -0.270105 -3.931070 -7.405120 -0.183668 -1.990232 10.697793 -8.923972 -7.843861 -3.026350 -0.231505 -0.078473 0.000000 0.000000 0.000000 5.137492 11.988380 -0.043997 -69.926817 23.039025 29.673926 179.835057 -72.802614 179.945865 7.657715 -8.806806 -0.630424 -0.073816 0.546052 0.000000 0.000000 0.000000 0.000000 0.000000 0.000000 0.000000 8.220885 -1.152237 -0.950499 81.975933 13.870749 37.125738 179.038141 72.698466 179.973997 -4.476168 17.156970 -0.734161 0.137697 -1.008297 0.000000 0.000000 0.000000 0.000000 0.000000 0.000000 0.000000 
3.655353 17.274404 1.518170 151.017442 -86.516899 -129.577794 -0.260025 -0.055371 -3.258846 -1.017304 -0.182410 -3.942613 -7.485742 -0.090551 -2.029240 10.696480 -9.015575 -7.777638 -2.991652 -0.230342 -0.055400 0.000000 0.000000 0.000000 5.442165 12.024449 -0.130445 -69.450426 24.093331 29.677326 179.810189 -72.239927 179.945226 7.909615 -8.747884 -0.646727 -0.077893 0.537342 0.000000 0.000000 0.000000 0.000000 0.000000 0.000000 0.000000 7.982827 -1.171322 -1.003310 82.534121 14.051255 37.252946 179.000209 72.217462 179.975317 -4.284236 16.796459 -0.688657 0.134620 -1.008952 0.000000 0.000000 0.000000 0.000000 0.000000 0.000000 0.000000 
3.385287 17.396796 1.510705 146.765235 -86.683007 -125.617804 -0.487652 0.001034 -3.188394 -1.088685 -0.106914 -3.943579 -7.561085 -0.009749 -2.067428 10.702354 -9.129204 -7.709552 -2.958995 -0.229276 -0.032315 0.000000 0.000000 0.000000 5.757679 12.031911 -0.218124 -69.059792 25.177128 29.573222 179.783110 -71.716275 179.944458 8.187426 -8.730268 -0.667828 -0.082331 0.529241 0.000000 0.000000 0.000000 0.000000 0.000000 0.000000 0.000000 7.784519 -1.224704 -1.048359 83.069169 14.218371 37.396468 178.961142 71.828310 179.977328 -4.027954 16.375463 -0.631884 0.129803 -1.005749 0.000000 0.000000 0.000000 0.000000 0.000000 0.000000 0.000000 
3.114509 17.512138 1.504403 143.168329 -86.798334 -122.361573 -0.698956 0.049407 -3.077586 -1.154042 -0.039401 -3.936517 -7.627989 0.062492 -2.102042 10.708177 -9.260420 -7.645193 -2.924397 -0.227948 -0.010463 0.000000 0.000000 0.000000 6.081971 12.037475 -0.306296 -68.750056 26.298251 29.386442 179.754877 -71.190355 179.943663 8.450262 -8.767620 -0.691932 -0.086113 0.522671 0.000000 0.000000 0.000000 0.000000 0.000000 0.000000 0.000000 7.592931 -1.301877 -1.090006 83.599087 14.384164 37.569811 178.918627 71.509639 179.980188 -3.688588 15.910035 -0.562844 0.122691 -0.999438 0.000000 0.000000 0.000000 0.000000 0.000000 0.000000 0.000000 
2.842985 17.618052 1.499996 140.848644 -86.866829 -120.409172 -0.878184 0.093672 -2.947049 -1.209188 0.022027 -3.924946 -7.684341 0.127626 -2.132188 10.706995 -9.402682 -7.588979 -2.884906 -0.226099 0.009286 0.000000 0.000000 0.000000 6.405782 12.060301 -0.394451 -68.511284 27.462412 29.141800 179.726323 -70.626543 179.942902 8.668293 -8.863446 -0.716942 -0.088574 0.518216 0.000000 0.000000 0.000000 0.000000 0.000000 0.000000 0.000000 7.379905 -1.391958 -1.132020 84.133644 14.553089 37.779960 178.871325 71.239787 179.983934 -3.260485 15.421899 -0.482732 0.113027 -0.990906 0.000000 0.000000 0.000000 0.000000 0.000000 0.000000 0.000000 
2.570619 17.712776 1.498092 140.155613 -86.903344 -120.084547 -1.009363 0.134894 -2.821084 -1.250719 0.076327 -3.914533 -7.731340 0.184093 -2.163377 10.694748 -9.541772 -7.539377 -2.839672 -0.223727 0.027791 0.000000 0.000000 0.000000 6.711170 12.097347 -0.482127 -68.327003 28.689143 28.853078 179.698563 -69.998220 179.942240 8.809594 -9.022534 -0.740962 -0.088938 0.516272 0.000000 0.000000 0.000000 0.000000 0.000000 0.000000 0.000000 7.128571 -1.477469 -1.176080 84.674688 14.713065 38.020365 178.819831 70.997769 179.988435 -2.752502 14.935575 -0.395044 0.100816 -0.981160 0.000000 0.000000 0.000000 0.000000 0.000000 0.000000 0.000000 
2.298204 17.795265 1.498789 141.133173 -86.915670 -121.435788 -1.089564 0.171997 -2.687996 -1.277419 0.122859 -3.901377 -7.767592 0.231453 -2.188814 10.673754 -9.678825 -7.504834 -2.789033 -0.220692 0.042323 0.000000 0.000000 0.000000 6.992111 12.177897 -0.566582 -68.183949 29.922820 28.555667 179.671974 -69.315510 179.941606 8.902305 -9.211650 -0.763682 -0.088279 0.516286 0.000000 0.000000 0.000000 0.000000 0.000000 0.000000 0.000000 6.844294 -1.560745 -1.223896 85.209403 14.883875 38.293930 178.763685 70.777310 179.993514 -2.188624 14.477429 -0.304771 0.086837 -0.971062 0.000000 0.000000 0.000000 0.000000 0.000000 0.000000 0.000000 
2.025591 17.865108 1.501757 143.597365 -86.904208 -124.251558 -1.122063 0.204504 -2.575299 -1.290828 0.160354 -3.893264 -7.798622 0.267886 -2.219258 10.649085 -9.791636 -7.477110 -2.736009 -0.217388 0.055551 0.000000 0.000000 0.000000 7.233525 12.276199 -0.647265 -68.064646 31.182121 28.248106 179.648030 -68.580476 179.941063 8.926483 -9.435007 -0.783507 -0.086039 0.518230 0.000000 0.000000 0.000000 0.000000 0.000000 0.000000 0.000000 6.539384 -1.617256 -1.273299 85.725658 15.031380 38.575428 178.706935 70.569020 179.998797 -1.601965 14.071254 -0.217004 0.071724 -0.961638 0.000000 0.000000 0.000000 0.000000 0.000000 0.000000 0.000000 
1.753504 17.922487 1.506279 147.064874 -86.860331 -128.051806 -1.126215 0.229979 -2.473627 -1.295288 0.188279 -3.888614 -7.827078 0.293078 -2.255055 10.630091 -9.876442 -7.455901 -2.684299 -0.214067 0.067133 0.000000 0.000000 0.000000 7.429892 12.389115 -0.721977 -67.956265 32.426506 27.940295 179.627316 -67.821337 179.940581 8.912497 -9.665637 -0.800633 -0.083164 0.521289 0.000000 0.000000 0.000000 0.000000 0.000000 0.000000 0.000000 6.243370 -1.644840 -1.321059 86.203248 15.157316 38.853865 178.651560 70.377207 -179.996055 -1.032815 13.737059 -0.136731 0.056748 -0.953692 -0.000000 0.000000 0.000000 0.000000 0.000000 0.000000 0.000000 
